<svg
  viewBox="0 0 304 304"
  width="304"
  height="304"
  x="0"
  y="0"
  xmlns="http://www.w3.org/2000/svg"
>
  <defs><pattern
      id="pattern"
      x="0"
      y="0"
      width="8"
      height="8"
      patternUnits="userSpaceOnUse"
    ><polygon points="0,4 0,8 8,0 4,0" fill="#ffffff"></polygon><polygon
        points="4,8 8,8 8,4"
        fill="#ffffff"
      ></polygon></pattern><mask
      id="grating"
      x="0"
      y="0"
      width="1"
      height="1"
    ><rect
        x="0"
        y="0"
        width="100%"
        height="100%"
        fill="url(#pattern)"
      ></rect></mask></defs><g id="horizStripes"><rect
      fill="#789484"
      height="24"
      width="100%"
      x="0"
      y="0"
    ></rect><rect
      fill="#003820"
      height="48"
      width="100%"
      x="0"
      y="24"
    ></rect><rect
      fill="#101010"
      height="48"
      width="100%"
      x="0"
      y="72"
    ></rect><rect
      fill="#789484"
      height="32"
      width="100%"
      x="0"
      y="120"
    ></rect><rect
      fill="#C80000"
      height="8"
      width="100%"
      x="0"
      y="152"
    ></rect><rect
      fill="#789484"
      height="8"
      width="100%"
      x="0"
      y="160"
    ></rect><rect
      fill="#C80000"
      height="8"
      width="100%"
      x="0"
      y="168"
    ></rect><rect
      fill="#789484"
      height="32"
      width="100%"
      x="0"
      y="176"
    ></rect><rect
      fill="#101010"
      height="48"
      width="100%"
      x="0"
      y="208"
    ></rect><rect
      fill="#003820"
      height="48"
      width="100%"
      x="0"
      y="256"
    ></rect></g><g id="vertStripes" mask="url(#grating)"><rect
      fill="#789484"
      height="100%"
      width="24"
      x="0"
      y="0"
    ></rect><rect
      fill="#003820"
      height="100%"
      width="48"
      x="24"
      y="0"
    ></rect><rect
      fill="#101010"
      height="100%"
      width="48"
      x="72"
      y="0"
    ></rect><rect
      fill="#789484"
      height="100%"
      width="32"
      x="120"
      y="0"
    ></rect><rect
      fill="#C80000"
      height="100%"
      width="8"
      x="152"
      y="0"
    ></rect><rect
      fill="#789484"
      height="100%"
      width="8"
      x="160"
      y="0"
    ></rect><rect
      fill="#C80000"
      height="100%"
      width="8"
      x="168"
      y="0"
    ></rect><rect
      fill="#789484"
      height="100%"
      width="32"
      x="176"
      y="0"
    ></rect><rect
      fill="#101010"
      height="100%"
      width="48"
      x="208"
      y="0"
    ></rect><rect
      fill="#003820"
      height="100%"
      width="48"
      x="256"
      y="0"
    ></rect></g>
</svg>
